<?xml version="1.0" encoding="utf-8"?>
<!-- Generator: Adobe Illustrator 21.0.2, SVG Export Plug-In . SVG Version: 6.00 Build 0)  -->
<svg version="1.1" id="Layer_1" xmlns="http://www.w3.org/2000/svg" xmlns:xlink="http://www.w3.org/1999/xlink" x="0px" y="0px"
	 viewBox="0 0 374.7 259.3" style="enable-background:new 0 0 374.7 259.3;" xml:space="preserve">
<style type="text/css">
	.st0{fill:#FFFFFF;}
	.st1{fill:#495D9C;}
	.st2{fill:#7685C2;}
	.st3{fill:#6C73B6;}
	.st4{fill:#6369A6;}
	.st5{fill:#5A96CA;}
	.st6{fill:#EAEBEE;}
	.st7{fill:#3C5A9A;}
	.st8{fill:#5980C0;}
	.st9{fill:#9E9EA0;}
	.st10{fill:#7AA4D7;}
	.st11{opacity:0.5;fill:#EAEBEE;enable-background:new    ;}
	.st12{fill:#4468B1;}
	.st13{opacity:0.25;fill:#606161;enable-background:new    ;}
	.st14{fill:#333333;}
</style>
<g>
	<g>
		<path class="st0" d="M285.4,29.9c-0.8-0.3-1.5,0-1.7,0.6l-1.1,3.2l-19.6,58c-0.2,0.6,0.3,1.3,1,1.5c0.8,0.3,1.5,0,1.7-0.6l19.6-58
			l1.1-3.2C286.7,30.9,286.2,30.2,285.4,29.9z"/>
		<g>
			
				<rect x="290.1" y="67" transform="matrix(0.3202 -0.9473 0.9473 0.3202 130.7478 327.3202)" class="st1" width="6.7" height="11.1"/>
			<g>
				
					<rect x="276.5" y="41.8" transform="matrix(0.3202 -0.9473 0.9473 0.3202 147.7529 314.0362)" class="st2" width="32.3" height="24.5"/>
				<path class="st3" d="M307.7,48l-8.6,25.3l-6.3-2.1c-2.3-0.8-4.9,0.5-5.6,2.8c-0.8,2.3,0.5,4.9,2.8,5.6l4.2,1.4L329,92.8
					L323.1,72l17.3-13L307.7,48z"/>
				<path class="st4" d="M287.2,74c-0.8,2.3,0.5,4.9,2.8,5.6l4.2,1.4l2.1,0.7l2.9-8.4l-6.3-2.1C290.5,70.4,287.9,71.7,287.2,74z"/>
			</g>
		</g>
	</g>
	<g>
		<g>
			<rect x="128.1" y="83" class="st0" width="17.2" height="19"/>
			<rect x="152.8" y="77.2" class="st0" width="17.2" height="24.8"/>
			<rect x="179" y="69.6" class="st0" width="17.2" height="32.4"/>
			<rect x="205.2" y="59.5" class="st0" width="17.2" height="42.5"/>
		</g>
		<g>
			<path class="st3" d="M125.1,75.3c-1.1-0.2-1.9-1.2-1.9-2.3c0-1.3,1-2.3,2.3-2.3c20.1-0.1,42.8-5.9,64-16.1
				c13.5-6.5,25.7-14.5,36.3-23.6c0.5-0.5,1.2-0.7,1.9-0.5c0.5,0.1,1,0.4,1.3,0.8c0.4,0.5,0.6,1.1,0.6,1.7c0,0.6-0.3,1.2-0.8,1.6
				c-10.9,9.4-23.5,17.6-37.3,24.3c-21.8,10.5-45.3,16.4-66,16.6C125.4,75.3,125.2,75.3,125.1,75.3z"/>
			<path class="st3" d="M225.8,50.2c-1.2-0.2-2-1.3-1.9-2.5l0.9-12.9l-12.9-0.9c-0.1,0-0.2,0-0.2,0c-1.2-0.2-2-1.3-1.9-2.5
				c0-0.6,0.3-1.2,0.8-1.6s1.1-0.6,1.7-0.6l17.5,1.3L228.5,48c-0.1,1.3-1.2,2.2-2.5,2.1C226,50.2,225.9,50.2,225.8,50.2z"/>
		</g>
	</g>
	<g>
		<g>
			
				<rect x="248.1" y="165.4" transform="matrix(0.1773 -0.9842 0.9842 0.1773 51.929 414.947)" class="st3" width="52.2" height="22.1"/>
			<path class="st0" d="M359,163.4c0.6-3.4-1.7-6.7-5.1-7.3l-1.8-0.3l0,0l-25.1-4.5c0,0-0.5-0.1,0-2.6c14.9-22.6,6.3-25.8,4.1-31.4
				c-2.2-5.6-7.4,0.7-7.4,0.7s-1.2,8.6-2.1,11.7c-1,3-24.9,24.4-24.9,24.4l-0.1,0.4l-7.9,43.9l33.4,6l14.4,2.6l0.5,0.1l0,0
				c3.3,0.3,6.3-1.9,6.9-5.2l0.2-0.9c0.5-2.6-0.6-5.2-2.6-6.7c3.5,0.2,6.7-2.3,7.4-5.8c0.4-2.2-0.3-4.3-1.6-5.9
				c3.2-0.2,6-2.5,6.5-5.8c0.5-2.7-0.6-5.3-2.6-6.8C354.9,170,358.3,167.3,359,163.4z"/>
		</g>
	</g>
	<g>
		<path class="st0" d="M24.2,102.1c-10.4,12.8-8.4,31.7,4.4,42c12.8,10.4,31.7,8.4,42-4.4c10.4-12.8,8.4-31.7-4.4-42
			C53.4,87.3,34.5,89.2,24.2,102.1L24.2,102.1z M32.1,139.8c-10.4-8.5-12-23.8-3.6-34.2s23.8-12,34.2-3.6
			c10.4,8.5,12.1,23.8,3.6,34.2l0,0C57.8,146.6,42.5,148.2,32.1,139.8z"/>
		
			<rect x="75.4" y="132.3" transform="matrix(0.629 -0.7774 0.7774 0.629 -84.6707 116.2759)" class="st0" width="8.1" height="29.1"/>
		
			<rect x="78" y="139.3" transform="matrix(0.629 -0.7774 0.7774 0.629 -85.4399 119.3218)" class="st5" width="8.6" height="19.7"/>
		<path class="st3" d="M97.1,169.7c2.9,2.4,7.2,1.9,9.5-1c2.4-2.9,1.9-7.2-1-9.5L83.2,141c-2.9-2.4-7.2-1.9-9.5,1
			c-2.4,2.9-1.9,7.2,1,9.5L97.1,169.7z"/>
	</g>
	<g>
		<g>
			<rect x="93" y="104.3" class="st6" width="173.2" height="97.6"/>
			<rect x="93" y="99" class="st7" width="173.2" height="5.8"/>
			<rect x="114.7" y="100.6" class="st0" width="61.2" height="3"/>
			<rect x="110.6" y="107.8" class="st8" width="23.2" height="23.3"/>
			<rect x="110.6" y="132.3" class="st9" width="19.4" height="3.5"/>
			<rect x="110.6" y="137" class="st9" width="12.9" height="3.5"/>
			<rect x="135.8" y="147" class="st0" width="112.4" height="7.6"/>
			<rect x="135.8" y="104.8" class="st10" width="112.4" height="42.2"/>
			<rect x="135.8" y="155.8" class="st0" width="69" height="16.1"/>
			<rect x="135.8" y="172" class="st10" width="69" height="29.9"/>
			<rect x="206.3" y="194" class="st0" width="42" height="7.9"/>
			<rect x="206.3" y="176.4" class="st0" width="42" height="15.9"/>
			<rect x="206.3" y="168.4" class="st0" width="42" height="6.2"/>
			<rect x="206.3" y="156.4" class="st0" width="42" height="10.3"/>
			<rect x="227.4" y="149.1" class="st6" width="18.8" height="3.5"/>
			<rect x="148.8" y="159.1" class="st6" width="17" height="1.8"/>
			<rect x="148.8" y="162" class="st11" width="13.5" height="1.8"/>
			<rect x="148.8" y="164.9" class="st6" width="54" height="1.8"/>
			<rect x="148.8" y="167.9" class="st6" width="38.2" height="1.8"/>
			<rect x="206.3" y="149.1" class="st12" width="18.8" height="3.5"/>
			<rect x="110.6" y="145.8" class="st13" width="13.8" height="2.9"/>
			<rect x="110.6" y="149.9" class="st13" width="11.5" height="2.9"/>
			<rect x="110.6" y="154.1" class="st13" width="15" height="2.9"/>
			<rect x="110.6" y="158.2" class="st13" width="10.3" height="2.9"/>
			<rect x="110.6" y="162.3" class="st13" width="13.8" height="2.9"/>
			<rect x="110.6" y="166.4" class="st13" width="15" height="2.9"/>
			<rect x="110.6" y="170.5" class="st13" width="13.8" height="2.9"/>
			<rect x="110.6" y="174.6" class="st13" width="12.6" height="2.9"/>
			<rect x="110.6" y="178.7" class="st13" width="11.5" height="2.9"/>
			<rect x="110.6" y="182.8" class="st13" width="15" height="2.9"/>
			<rect x="138.2" y="158.9" class="st8" width="9.4" height="9.5"/>
		</g>
		<g>
			<path class="st14" d="M208.8,231.3c0,0-3.2-2.7-5-4.5s-2.3-4-2.3-4l-1.4-15.1H161l-1.4,15.1c0,0-0.5,2.3-2.3,4.1s-5,4.5-5,4.5
				s-2.9,2,1.5,2.7c2.5,0.4,13.6,0.6,22.5,0.6h8.4c9.1,0,20-0.3,22.5-0.6C211.7,233.4,208.8,231.3,208.8,231.3z"/>
			<path class="st14" d="M269,91.3H92.1c-2.5,0-4.6,2.4-4.6,5v103.9c0,2.6,2.1,4.8,4.6,4.8h65.4h3.8h38.6h3.9H269
				c2.5,0,4.6-2.2,4.6-4.8V96.3C273.6,93.8,271.5,91.3,269,91.3z M265.9,196.7H94.6V99.6h171.3L265.9,196.7L265.9,196.7z"/>
		</g>
	</g>
</g>
</svg>
